<?xml version="1.0" encoding="utf-8"?>
<!-- Generator: Adobe Illustrator 22.1.0, SVG Export Plug-In . SVG Version: 6.00 Build 0)  -->
<svg version="1.1" id="レイヤー_1" xmlns="http://www.w3.org/2000/svg" xmlns:xlink="http://www.w3.org/1999/xlink" x="0px"
	 y="0px" viewBox="0 0 140 130.8" style="enable-background:new 0 0 140 130.8;" xml:space="preserve">
<g>
	<g>
		<path d="M48.1,0h15.9c0.8,0,1.4,0.6,1.4,1.4v39.2c0,0.8-0.6,1.4-1.4,1.4H48.1c-0.8,0-1.4-0.6-1.4-1.4v-8.5c0-0.8-0.6-1.4-1.4-1.4
			h-3.5c-0.8,0-1.4,0.6-1.4,1.4v8.5c0,0.8-0.6,1.4-1.4,1.4H20.1c-0.8,0-1.4,0.6-1.4,1.4v25.2c0,0.8-0.6,1.4-1.4,1.4H1.4
			C0.6,70,0,69.4,0,68.6V1.4C0,0.6,0.6,0,1.4,0h15.9c0.8,0,1.4,0.6,1.4,1.4v20.5c0,0.8,0.6,1.4,1.4,1.4h25.2c0.8,0,1.4-0.6,1.4-1.4
			V1.4C46.7,0.6,47.3,0,48.1,0z"/>
		<path d="M138.6,0c0.8,0,1.4,0.6,1.4,1.4v67.2c0,0.8-0.6,1.4-1.4,1.4L101,70c-0.8,0-1.4-0.6-1.4-1.4V52.7c0-0.8,0.6-1.4,1.4-1.4
			l18.9,0c0.8,0,1.4-0.6,1.4-1.4V20.1c0-0.8-0.6-1.4-1.4-1.4H101c-0.8,0-1.4-0.6-1.4-1.4V8.8c0-0.8-0.6-1.4-1.4-1.4h-3.5
			c-0.8,0-1.4,0.6-1.4,1.4v9.9v49.9c0,0.8-0.6,1.4-1.4,1.4l-43.9,0c-0.8,0-1.4-0.6-1.4-1.4V52.7c0-0.8,0.6-1.4,1.4-1.4l18.9,0
			c0.8,0,1.4,0.6,1.4,1.4v8.5c0,0.8,0.6,1.4,1.4,1.4h3.5c0.8,0,1.4-0.6,1.4-1.4v-9.9v-0.9V1.4c0-0.8,0.6-1.4,1.4-1.4H138.6z"/>
	</g>
	<g>
		<path d="M113,99.3l-5.3-0.5c-0.5,0-0.9,0.3-1,0.7c-0.6,1.8-2.3,3.1-4.3,3c-2.2-0.2-3.9-2.1-3.9-4.3v-6.8c0-2.2,1.7-4.2,3.9-4.3
			c2-0.1,3.8,1.1,4.3,3c0.1,0.4,0.5,0.7,1,0.7l5.3-0.5c0.6,0,1-0.6,0.9-1.1c-1-5.6-6.2-9.7-12.1-9.2c-5.7,0.5-10.4,5.9-10.4,11.6
			c0,2.1,0,4.4,0,6.5c0,6,4.5,11.2,10.4,11.6c6,0.5,11.1-3.7,12.1-9.2C114,99.9,113.6,99.3,113,99.3z"/>
		<path d="M34.6,79.8c-6.3,0-11.4,5.1-11.4,11.4v7.1c0,6.3,5.1,11.4,11.4,11.4c6.3,0,11.4-5.1,11.4-11.4v-7.1
			C46,84.9,40.9,79.8,34.6,79.8z M38.8,98.3c0,2.3-1.9,4.2-4.2,4.2c-2.3,0-4.2-1.9-4.2-4.2v-7.1c0-2.3,1.9-4.2,4.2-4.2
			c2.3,0,4.2,1.9,4.2,4.2V98.3z"/>
		<path d="M128.6,79.8c-6.3,0-11.4,5.1-11.4,11.4v7.1c0,6.3,5.1,11.4,11.4,11.4c6.3,0,11.4-5.1,11.4-11.4v-7.1
			C140,84.9,134.9,79.8,128.6,79.8z M132.8,98.3c0,2.3-1.9,4.2-4.2,4.2c-2.3,0-4.2-1.9-4.2-4.2v-7.1c0-2.3,1.9-4.2,4.2-4.2
			c2.3,0,4.2,1.9,4.2,4.2V98.3z"/>
		<path d="M86.8,80.2h-5.3c-0.5,0-1,0.4-1.1,1l-4.8,27.1c-0.1,0.5,0.3,1,0.8,1h5.3c0.5,0,1-0.4,1.1-1l4.8-27.1
			C87.7,80.7,87.3,80.2,86.8,80.2z"/>
		<path d="M20.5,80.2H1c-0.5,0-1,0.4-1,1v4.6c0,0.5,0.4,1,1,1h6.2v21.6c0,0.5,0.4,1,1,1h5.3c0.5,0,1-0.4,1-1V86.7h6.2
			c0.5,0,1-0.4,1-1v-4.6C21.4,80.7,21,80.2,20.5,80.2z"/>
		<path d="M67.3,98.6c2.4-1.9,3.9-4.8,3.9-8.1c0-5.6-4.9-10.2-10.6-10.2h-9.8c-0.5,0-1,0.4-1,1v27.1c0,0.5,0.4,1,1,1h5.3
			c0.5,0,1-0.4,1-1v-7.5l3.4,0c0.4,0,0.7,0.2,0.9,0.6l3.2,7c0.2,0.5,0.9,1,1.4,1h5.3c0.5,0,0.8-0.4,0.5-1L67.3,98.6z M61,93.6h-3.8
			v-6.2H61c1.7,0,3.1,1.4,3.1,3.1C64.1,92.2,62.7,93.6,61,93.6z"/>
	</g>
	<g>
		<path d="M31.7,125.2c0.6,0,0.9,0.2,1,0.7c0.1,0.3,0.2,0.4,0.5,0.3l1.1-0.4c0.3-0.1,0.4-0.3,0.3-0.5c-0.4-1.1-1.4-1.8-2.9-1.8
			c-2,0-3.1,1.1-3.1,2.8v1.8c0,1.7,1.1,2.8,3.1,2.8c1.5,0,2.5-0.6,2.9-1.8c0.1-0.3,0-0.4-0.3-0.5l-1.1-0.4c-0.3-0.1-0.4,0-0.5,0.3
			c-0.2,0.4-0.5,0.7-1,0.7c-0.8,0-1.1-0.3-1.1-1v-1.8C30.6,125.5,30.9,125.2,31.7,125.2z"/>
		<path d="M40.6,128.5c-0.1-0.2-0.2-0.3-0.3-0.4c0.7-0.4,1.1-1.1,1.1-2.1c0-1.6-1-2.4-2.5-2.4H36c-0.3,0-0.4,0.1-0.4,0.4v6.3
			c0,0.3,0.1,0.4,0.4,0.4h1.1c0.3,0,0.4-0.1,0.4-0.4v-1.9h0.2c0.4,0,0.6,0.2,0.8,0.5l0.6,1.4c0.2,0.4,0.4,0.5,0.9,0.5h1.1
			c0.3,0,0.4-0.2,0.3-0.5L40.6,128.5z M38.7,126.6h-1.1v-1.3h1.1c0.4,0,0.7,0.3,0.7,0.7C39.3,126.4,39.1,126.6,38.7,126.6z"/>
		<path d="M47.2,128.9h-2.7v-1h2.1c0.3,0,0.4-0.1,0.4-0.4v-0.9c0-0.3-0.1-0.4-0.4-0.4h-2.1v-0.9h2.6c0.3,0,0.4-0.1,0.4-0.4V124
			c0-0.3-0.1-0.4-0.4-0.4h-4.2c-0.3,0-0.4,0.1-0.4,0.4v6.3c0,0.3,0.1,0.4,0.4,0.4h4.3c0.3,0,0.4-0.1,0.4-0.4v-0.9
			C47.6,129,47.5,128.9,47.2,128.9z"/>
		<path d="M52.6,123.9c-0.1-0.3-0.2-0.3-0.5-0.3H51c-0.3,0-0.4,0.1-0.5,0.4l-2.3,6.4c-0.1,0.3,0,0.4,0.3,0.4h1.1
			c0.5,0,0.6-0.1,0.7-0.4l0.2-0.7h2.2l0.2,0.7c0.1,0.3,0.2,0.4,0.8,0.4h1.1c0.3,0,0.4-0.1,0.3-0.4L52.6,123.9z M50.9,128l0.4-1.2
			c0.2-0.7,0.2-1.4,0.2-1.4h0.1c0,0,0,0.7,0.2,1.4l0.4,1.2H50.9z"/>
		<path d="M59.9,123.6h-5c-0.3,0-0.4,0.1-0.4,0.4v0.9c0,0.3,0.1,0.4,0.4,0.4h1.5v5c0,0.3,0.1,0.4,0.4,0.4H58c0.3,0,0.4-0.1,0.4-0.4
			v-5h1.5c0.3,0,0.4-0.1,0.4-0.4V124C60.4,123.7,60.3,123.6,59.9,123.6z"/>
		<path d="M62.8,123.6h-1.2c-0.3,0-0.4,0.1-0.4,0.4v6.3c0,0.3,0.1,0.4,0.4,0.4h1.2c0.3,0,0.4-0.1,0.4-0.4V124
			C63.2,123.7,63.1,123.6,62.8,123.6z"/>
		<path d="M70.5,123.6h-1.1c-0.5,0-0.6,0.1-0.7,0.4l-1,3.4c-0.2,0.6-0.2,1.3-0.2,1.3h-0.1c0,0-0.1-0.7-0.2-1.3l-1-3.4
			c-0.1-0.3-0.2-0.4-0.7-0.4h-1.1c-0.3,0-0.4,0.1-0.3,0.4l2.2,6.4c0.1,0.3,0.2,0.3,0.5,0.3H68c0.3,0,0.4-0.1,0.5-0.4l2.2-6.4
			C70.8,123.7,70.8,123.6,70.5,123.6z"/>
		<path d="M76.3,128.9h-2.7v-1h2.1c0.3,0,0.4-0.1,0.4-0.4v-0.9c0-0.3-0.1-0.4-0.4-0.4h-2.1v-0.9h2.6c0.3,0,0.4-0.1,0.4-0.4V124
			c0-0.3-0.1-0.4-0.4-0.4H72c-0.3,0-0.4,0.1-0.4,0.4v6.3c0,0.3,0.1,0.4,0.4,0.4h4.3c0.3,0,0.4-0.1,0.4-0.4v-0.9
			C76.7,129,76.6,128.9,76.3,128.9z"/>
		<path d="M82.8,126.2c-0.7-0.1-1.3-0.2-1.3-0.6c0-0.4,0.3-0.5,1-0.5c0.5,0,0.8,0.1,1,0.5c0.2,0.3,0.3,0.3,0.5,0.2l1-0.4
			c0.3-0.1,0.4-0.3,0.2-0.6c-0.5-1-1.3-1.4-2.8-1.4c-1.9,0-3,0.9-3,2.2c0,1.9,1.6,2.1,2.8,2.3c0.7,0.1,1.2,0.2,1.2,0.6
			c0,0.4-0.4,0.6-1.1,0.6c-0.6,0-1-0.2-1.1-0.5c-0.2-0.3-0.3-0.3-0.6-0.2l-0.9,0.3c-0.3,0.1-0.4,0.3-0.3,0.6c0.4,1,1.4,1.6,2.9,1.6
			c1.8,0,3.1-0.8,3.1-2.3C85.5,126.6,84,126.4,82.8,126.2z"/>
		<path d="M89.6,123.6h-2.8c-0.3,0-0.4,0.1-0.4,0.4v6.3c0,0.3,0.1,0.4,0.4,0.4H88c0.3,0,0.4-0.1,0.4-0.4v-1.7h1.2
			c1.6,0,2.6-0.9,2.6-2.5C92.2,124.5,91.2,123.6,89.6,123.6z M89.4,126.8h-1v-1.5h1c0.5,0,0.8,0.3,0.8,0.7
			C90.1,126.5,89.9,126.8,89.4,126.8z"/>
		<path d="M96.6,123.9c-0.1-0.3-0.2-0.3-0.5-0.3h-1.1c-0.3,0-0.4,0.1-0.5,0.4l-2.3,6.4c-0.1,0.3,0,0.4,0.3,0.4h1.1
			c0.5,0,0.6-0.1,0.7-0.4l0.2-0.7h2.2l0.2,0.7c0.1,0.3,0.2,0.4,0.8,0.4h1.1c0.3,0,0.4-0.1,0.3-0.4L96.6,123.9z M94.8,128l0.4-1.2
			c0.2-0.7,0.2-1.4,0.2-1.4h0.1c0,0,0,0.7,0.2,1.4l0.4,1.2H94.8z"/>
		<path d="M102.3,125.2c0.6,0,0.9,0.2,1,0.7c0.1,0.3,0.2,0.4,0.5,0.3l1.1-0.4c0.3-0.1,0.4-0.3,0.3-0.5c-0.4-1.1-1.4-1.8-2.9-1.8
			c-2,0-3.1,1.1-3.1,2.8v1.8c0,1.7,1.1,2.8,3.1,2.8c1.5,0,2.5-0.6,2.9-1.8c0.1-0.3,0-0.4-0.3-0.5l-1.1-0.4c-0.3-0.1-0.4,0-0.5,0.3
			c-0.2,0.4-0.5,0.7-1,0.7c-0.8,0-1.1-0.3-1.1-1v-1.8C101.2,125.5,101.5,125.2,102.3,125.2z"/>
		<path d="M110.9,128.9h-2.7v-1h2.1c0.3,0,0.4-0.1,0.4-0.4v-0.9c0-0.3-0.1-0.4-0.4-0.4h-2.1v-0.9h2.6c0.3,0,0.4-0.1,0.4-0.4V124
			c0-0.3-0.1-0.4-0.4-0.4h-4.2c-0.3,0-0.4,0.1-0.4,0.4v6.3c0,0.3,0.1,0.4,0.4,0.4h4.3c0.3,0,0.4-0.1,0.4-0.4v-0.9
			C111.3,129,111.2,128.9,110.9,128.9z"/>
	</g>
</g>
</svg>
